<?xml version="1.0" encoding="UTF-8"?>
<svg width="465px" height="58px" viewBox="0 0 465 58" version="1.1" xmlns="http://www.w3.org/2000/svg" xmlns:xlink="http://www.w3.org/1999/xlink">
    <title>Entrusted Logo Orange</title>
    <g id="Page-1" stroke="none" stroke-width="1" fill="none" fill-rule="evenodd">
        <g id="Group-50" transform="translate(0.7005, 0.5736)" fill="#EB690B">
            <polygon id="Fill-36" points="397.33 29.1577 385.316 22.3227 373.406 29.1577"></polygon>
            <path d="M401.2902,44.681 C400.4292,44.681 400.2662,45.481 400.1482,46.064 C399.4852,49.244 398.6082,50.402 396.3972,51.019 C394.3282,51.567 391.7962,51.643 389.3672,51.643 C388.9042,51.643 388.4752,51.639 388.0662,51.632 L388.0662,51.635 L380.7782,51.594 C378.9482,51.516 377.7512,51.34 376.9122,51.031 C375.3002,50.455 374.7292,49.278 374.5612,46.187 C374.5042,45.124 374.5292,40.536 374.5482,37.187 C374.5552,35.871 374.5612,34.736 374.5612,34.059 L374.5612,27.992 L374.5612,27.808 L374.5612,24.044 L374.5612,23.679 L374.5612,4.437 C374.5612,4.261 374.5842,4.173 374.5972,4.136 L379.5132,4.136 L383.5262,4.136 C386.5782,4.166 391.1532,4.231 392.1062,4.327 C395.6082,4.6 397.1682,5.261 397.6822,6.706 C397.9222,7.255 398.0662,8.08 398.0662,8.913 C398.0662,10.054 398.7642,10.224 399.1812,10.224 C399.7822,10.224 400.1762,9.671 400.2932,8.659 C400.4082,7.381 400.4832,6.341 400.5452,5.468 L400.6252,4.394 C400.7262,3.178 400.9582,2.388 401.1112,1.864 C401.2142,1.514 401.2882,1.261 401.2882,1.028 C401.2882,0.101 400.7402,0 400.5042,0 C400.1502,0 399.9292,0.096 399.3922,0.326 C399.2452,0.389 398.5512,0.602 395.7692,0.712 C394.6652,0.752 388.5202,0.769 383.5262,0.777 L383.5262,0.779 L380.3332,0.779 L380.3312,0.78 L375.5242,0.78 L375.5242,0.779 C372.9762,0.782 371.0282,0.782 370.8092,0.782 C365.7912,0.569 363.6752,0.569 361.8072,0.569 C361.3412,0.569 360.1012,0.569 360.1012,1.525 C360.1012,2.155 360.9132,2.26 361.5202,2.337 C361.7732,2.363 362.0652,2.379 362.3632,2.396 C362.8902,2.426 363.4352,2.456 363.7832,2.544 C366.0082,2.966 366.6972,3.794 366.8582,6.237 C367.0152,8.498 367.0152,10.492 367.0152,21.557 L367.0152,34.059 C367.0152,40.404 366.9352,44.042 366.8572,46.764 C366.6972,52.136 365.6172,52.8 364.3102,53.078 C363.9372,53.174 363.5952,53.199 363.1202,53.234 C362.9502,53.246 362.7642,53.26 362.5302,53.281 C361.5082,53.434 361.2932,53.806 361.2932,54.091 C361.2932,55.047 362.5312,55.048 362.9832,55.047 C364.1682,55.089 365.3042,55.014 366.3972,54.943 C367.2532,54.887 368.0632,54.834 368.8812,54.834 C371.0062,54.834 373.3992,54.901 375.7152,54.966 C376.7712,54.996 377.8122,55.025 378.8062,55.047 C379.5112,55.063 380.1932,55.084 380.8932,55.104 L388.0662,55.139 C390.1562,55.2 392.6162,55.26 396.4412,55.26 C399.5672,55.26 400.5102,55.26 401.1562,53.115 C401.5472,51.648 402.2012,46.787 402.2012,46.135 C402.2012,45.627 402.2012,44.681 401.2902,44.681" id="Fill-37"></path>
            <path d="M105.143,1.404 C103.214,1.404 101.515,1.498 100.39,1.56 C99.809,1.592 99.367,1.617 99.105,1.617 C98.849,1.617 98.309,1.594 97.586,1.563 C96.104,1.499 93.865,1.404 91.717,1.404 C91.041,1.404 89.908,1.404 89.908,2.29 C89.908,2.694 90.148,3.175 91.291,3.175 C91.716,3.175 92.855,3.209 94.248,3.518 C96.17,4.014 96.656,5.265 96.728,9.899 L97.488,44.982 C96.272,43.687 94.319,41.543 91.96,38.954 C88.791,35.476 84.847,31.148 81.133,27.171 C70.107,15.357 59.581,3.981 58.535,2.796 C58.353,2.616 58.14,2.378 57.913,2.126 C56.951,1.058 56.327,0.41 55.774,0.41 C54.773,0.41 54.604,1.625 54.604,4.352 C54.638,10.871 54.623,12.268 54.6,14.583 C54.573,17.151 54.533,21.03 54.533,34.539 L54.533,45.052 C54.533,51.511 54.153,53.29 52.667,53.706 C51.77,54.005 50.603,54.111 49.878,54.111 C49.172,54.111 48.921,54.551 48.921,54.927 C48.921,55.883 49.913,55.883 50.446,55.883 C52.664,55.883 54.804,55.779 56.082,55.718 C56.656,55.69 57.071,55.67 57.265,55.67 C57.444,55.67 57.798,55.687 58.304,55.711 C59.645,55.775 61.889,55.883 64.795,55.883 C65.294,55.883 66.462,55.883 66.462,54.927 C66.462,54.551 66.211,54.111 65.505,54.111 C65.312,54.111 63.577,54.1 62.064,53.702 C60.527,53.246 59.719,51.903 59.571,45.824 L58.677,12.859 C61.686,16.231 69.026,24.389 76.515,32.46 C84.104,40.621 94.316,51.04 95.066,51.72 C99.022,55.676 99.785,56.38 100.525,56.38 C101.476,56.38 101.553,55.559 101.553,50.949 L101.695,9.464 C101.695,4.372 102.26,3.797 103.857,3.454 C104.702,3.313 105.125,3.243 105.696,3.171 C106.434,3.065 106.809,2.768 106.809,2.29 C106.809,1.404 105.725,1.404 105.143,1.404" id="Fill-38"></path>
            <path d="M155.8003,0.9074 C155.6293,0.9074 155.4213,0.9524 155.1053,1.0214 C154.7763,1.0924 154.3263,1.1904 153.7393,1.2684 C152.5063,1.4994 150.8343,1.6174 148.7673,1.6174 L122.1303,1.6174 C121.2603,1.6174 118.5373,1.4684 116.5463,1.2634 C115.3823,1.1774 114.7053,0.8774 114.2123,0.6584 C113.8993,0.5194 113.6523,0.4104 113.3923,0.4104 C112.8863,0.4104 112.6403,1.0384 112.3463,1.9274 L112.3053,2.0534 C112.2893,2.1164 110.7303,8.7044 110.7303,9.5354 C110.7303,10.5124 111.3503,10.5624 111.4753,10.5624 C112.1063,10.5624 112.3803,10.0484 112.5433,9.6134 C112.7563,9.1174 112.9573,8.6494 113.7153,7.4774 C114.7553,5.9184 116.3093,5.4474 120.6453,5.3774 C122.3803,5.3414 124.1323,5.3244 125.8833,5.3064 C127.5143,5.2894 129.1453,5.2734 130.7623,5.2434 L130.7623,34.8944 C130.7623,41.5524 130.7623,47.3024 130.4113,50.2564 C130.1073,52.4584 129.7533,53.6164 128.6523,53.8364 C127.8763,54.0094 127.1113,54.1114 126.6043,54.1114 C125.9443,54.1114 125.6493,54.5204 125.6493,54.9264 C125.6493,55.8824 126.7563,55.8824 127.1733,55.8824 C128.6943,55.8824 131.3653,55.7764 132.9603,55.7124 C133.5903,55.6874 134.0333,55.6694 134.1343,55.6694 C134.2153,55.6694 134.5133,55.6814 134.9713,55.6984 C136.5593,55.7584 139.8623,55.8824 142.8723,55.8824 C144.1983,55.8824 144.3963,55.2844 144.3963,54.9264 C144.3963,54.5204 144.1003,54.1114 143.4403,54.1114 C142.8343,54.1114 141.3073,53.9754 140.2953,53.8314 C138.5233,53.5954 138.0843,52.4464 137.8583,50.2634 C137.5063,47.3024 137.5063,41.5524 137.5063,34.8944 L137.5063,5.2444 C138.8713,5.2744 140.2363,5.2904 141.6003,5.3064 C143.0873,5.3244 144.5723,5.3414 146.0593,5.3774 C153.1273,5.5244 154.2523,7.2584 154.4173,8.8954 C154.4173,9.0584 154.4363,9.2004 154.4573,9.3424 C154.4723,9.4484 154.4893,9.5554 154.4893,9.7044 C154.5393,10.4034 154.6003,11.2724 155.4443,11.2724 C155.6523,11.2724 156.3303,11.1784 156.3303,9.9614 C156.3303,9.6684 156.3603,8.7934 156.3983,7.7034 C156.4593,5.9214 156.5433,3.4814 156.5433,2.1474 C156.5433,1.7144 156.5433,0.9074 155.8003,0.9074" id="Fill-39"></path>
            <path d="M192.2447,18.2724 C192.2447,23.1334 190.6877,27.1034 188.0777,28.8934 C186.4287,30.0404 184.3737,30.1734 182.9717,30.1734 C179.9627,30.1734 176.7067,29.6884 175.7127,29.0924 C175.4937,28.9604 175.4037,28.8104 175.4037,28.5724 L175.4037,5.3444 C175.4037,5.0934 175.5037,4.9424 175.6957,4.8634 C176.3587,4.6644 178.2127,4.4534 180.3437,4.4534 C187.7957,4.4534 192.2447,9.6194 192.2447,18.2724 M216.2157,54.1114 C215.7997,54.1114 214.8257,54.1114 213.5067,53.9034 C211.6297,53.6034 208.7127,52.7594 205.0627,48.9074 C201.4577,45.0524 197.2587,39.6644 192.3967,33.4254 L190.5287,31.0294 C196.2987,25.6294 198.9877,20.3944 198.9877,14.5784 C198.9877,9.5824 195.8057,5.9574 193.9247,4.6024 C189.9947,1.7844 185.0337,1.4044 180.6987,1.4044 C179.3127,1.4044 176.6487,1.4884 174.7037,1.5504 C173.5377,1.5874 172.6067,1.6174 172.3167,1.6174 C172.2287,1.6174 171.8887,1.6034 171.3777,1.5844 C169.8577,1.5254 166.6947,1.4044 164.2907,1.4044 C163.8737,1.4044 162.7657,1.4044 162.7657,2.3604 C162.7657,2.8324 163.1677,3.1754 163.7217,3.1754 C164.3397,3.1754 165.5237,3.2474 166.0557,3.3804 C168.0437,3.8014 168.6607,4.6294 168.8037,7.0734 C168.9447,9.3344 168.9447,11.3274 168.9447,22.3924 L168.9447,34.8944 C168.9447,41.5524 168.9447,47.3024 168.5937,50.2564 C168.2897,52.4584 167.9357,53.6164 166.8337,53.8364 C166.0597,54.0094 165.2937,54.1114 164.7867,54.1114 C164.1267,54.1114 163.8307,54.5214 163.8307,54.9264 C163.8307,55.8824 164.9387,55.8824 165.3557,55.8824 C167.1667,55.8824 170.5997,55.7324 171.7277,55.6834 L172.0327,55.6694 C172.1137,55.6694 172.4117,55.6814 172.8707,55.6984 C174.4577,55.7584 177.7607,55.8824 180.7697,55.8824 C182.0967,55.8824 182.2947,55.2844 182.2947,54.9264 C182.2947,54.5214 181.9987,54.1114 181.3387,54.1114 C180.7317,54.1114 179.2047,53.9754 178.1937,53.8314 C176.4217,53.5954 175.9827,52.4464 175.7567,50.2634 C175.4037,47.3024 175.4037,41.5524 175.4037,34.8944 L175.4037,33.1894 C175.4037,33.0634 175.4287,33.0224 175.4287,33.0224 C175.4307,33.0204 175.4537,33.0094 175.5067,33.0094 L184.2507,33.1514 C184.5407,33.1514 184.6617,33.2254 184.8667,33.4264 C185.4647,34.2034 186.4187,35.5194 187.5227,37.0434 C189.0207,39.1094 190.8857,41.6814 192.6077,43.9374 L193.5077,45.1244 C197.0727,49.8294 199.4267,52.9374 202.3217,54.4864 C204.2837,55.5434 206.1757,55.8824 210.1067,55.8824 L215.1507,55.8824 C216.0337,55.8824 217.2437,55.8824 217.2437,54.9264 C217.2437,54.4774 216.7827,54.1114 216.2157,54.1114" id="Fill-40"></path>
            <path d="M262.9931,1.404 C261.5471,1.404 259.5671,1.501 258.2571,1.564 C257.6421,1.595 257.1861,1.617 257.0261,1.617 C256.9141,1.617 256.5571,1.602 256.0331,1.58 C254.5701,1.518 251.8461,1.404 249.4971,1.404 C249.0801,1.404 247.9721,1.404 247.9721,2.361 C247.9721,2.833 248.3741,3.175 248.9281,3.175 C249.5471,3.175 250.7301,3.247 251.2631,3.38 C253.2511,3.801 253.8671,4.63 254.0111,7.073 C254.1511,9.334 254.1511,11.327 254.1511,22.393 L254.1511,31.272 C254.1511,39.797 252.9451,44.929 250.1221,48.426 C247.5531,51.495 243.3941,53.402 239.2681,53.402 C235.3101,53.402 232.1801,52.766 228.8101,49.602 C226.2341,47.147 223.6021,43.176 223.6021,32.337 L223.6021,22.393 C223.6021,11.328 223.6021,9.334 223.7441,7.071 C223.8881,4.548 224.4671,3.618 226.0551,3.381 C226.8811,3.244 227.2961,3.175 227.7601,3.175 C228.3141,3.175 228.7161,2.833 228.7161,2.361 C228.7161,1.404 227.6091,1.404 227.1921,1.404 C225.8071,1.404 223.5661,1.492 221.9291,1.556 C221.0581,1.59 220.3841,1.617 220.1591,1.617 C219.9641,1.617 219.4191,1.597 218.6661,1.569 C216.9981,1.507 214.2061,1.404 211.9911,1.404 C211.5741,1.404 210.4661,1.404 210.4661,2.361 C210.4661,2.833 210.8681,3.175 211.4221,3.175 C212.0411,3.175 213.2241,3.247 213.7571,3.38 C215.7441,3.801 216.3611,4.63 216.5041,7.073 C216.6461,9.334 216.6461,11.327 216.6461,22.393 L216.6461,32.763 C216.6461,44.215 220.0121,48.913 222.9471,51.728 C227.6951,56.208 234.3201,56.877 237.8471,56.877 C241.6531,56.877 247.3381,56.322 252.7381,51.523 C258.6461,46.28 259.4031,37.263 259.4031,29.993 L259.4031,22.393 C259.4031,11.327 259.4031,9.334 259.5441,7.071 C259.6861,4.606 260.2291,3.743 261.8511,3.383 C262.6811,3.244 263.0971,3.175 263.5621,3.175 C264.1161,3.175 264.5171,2.833 264.5171,2.361 C264.5171,1.404 263.4101,1.404 262.9931,1.404" id="Fill-41"></path>
            <path d="M288.8856,24.7152 L286.7596,23.1522 C279.6156,17.9282 277.6596,15.4292 277.6596,11.5232 C277.6596,6.8272 281.2446,3.6722 286.5806,3.6722 C292.9426,3.6722 295.0806,6.1632 295.7046,7.2352 C296.1176,7.9442 296.5676,9.7992 296.6436,10.6492 C296.7106,11.1522 296.8116,11.9122 297.6626,11.9122 C298.6086,11.9122 298.6086,10.5972 298.6086,9.8912 C298.6086,6.1052 298.7956,3.8552 298.8756,2.8942 C298.8996,2.6172 298.9126,2.4412 298.9126,2.3612 C298.9126,1.4752 298.0596,1.4752 297.7386,1.4752 C297.2016,1.4752 296.6556,1.4222 295.1786,1.1312 C292.9916,0.6392 290.7176,0.4102 288.0236,0.4102 C278.3776,0.4102 271.8976,5.7042 271.8976,13.5842 C271.8976,18.3972 273.6006,22.9122 281.9146,29.2992 L285.3296,31.9262 C292.0646,37.1292 293.9086,39.8132 293.9086,44.4132 C293.9086,48.9152 290.3226,53.4722 283.4686,53.4722 C280.6656,53.4722 273.9976,52.7962 272.6406,46.5332 C272.4226,45.5792 272.4226,44.6212 272.4226,43.9872 C272.4226,43.5782 272.4226,42.8172 271.4766,42.8172 C270.6016,42.8172 270.5066,43.7862 270.4546,44.3182 C270.4396,44.5402 270.4156,44.8272 270.3886,45.1712 C270.2706,46.6042 270.0746,49.0022 270.0746,51.8712 C270.0746,53.7792 270.1296,54.3032 271.4456,54.9202 C274.3316,56.2372 277.7176,56.8772 281.7986,56.8772 C286.3926,56.8772 290.4376,55.8222 293.5006,53.8222 C298.3866,50.5752 300.1266,45.4382 300.1266,41.7142 C300.1266,36.1992 298.2866,31.6502 288.8856,24.7152" id="Fill-42"></path>
            <path d="M351.9564,0.9074 C351.7854,0.9074 351.5764,0.9524 351.2614,1.0214 C350.9324,1.0924 350.4824,1.1904 349.8954,1.2684 C348.6624,1.4994 346.9904,1.6174 344.9244,1.6174 L318.2854,1.6174 C317.4154,1.6174 314.6934,1.4684 312.7014,1.2634 C311.5384,1.1774 310.8624,0.8774 310.3684,0.6584 C310.0554,0.5194 309.8084,0.4104 309.5484,0.4104 C309.0424,0.4104 308.7944,1.0404 308.5014,1.9314 L308.4614,2.0534 C308.3764,2.3904 306.8874,8.7374 306.8874,9.5354 C306.8874,10.5124 307.5074,10.5624 307.6314,10.5624 C308.2624,10.5624 308.5364,10.0484 308.6984,9.6174 C308.9104,9.1214 309.1114,8.6524 309.8714,7.4774 C310.9114,5.9184 312.4644,5.4474 316.8014,5.3774 C318.5354,5.3414 320.2884,5.3244 322.0404,5.3064 C323.6704,5.2894 325.3024,5.2734 326.9194,5.2434 L326.9194,34.8944 C326.9194,41.5524 326.9194,47.3024 326.5684,50.2564 C326.2644,52.4584 325.9084,53.6164 324.8074,53.8364 C324.0334,54.0094 323.2684,54.1114 322.7604,54.1114 C322.1004,54.1114 321.8044,54.5204 321.8044,54.9264 C321.8044,55.8824 322.9124,55.8824 323.3294,55.8824 C324.8504,55.8824 327.5204,55.7764 329.1154,55.7134 C329.7454,55.6874 330.1894,55.6694 330.2904,55.6694 C330.3714,55.6694 330.6694,55.6814 331.1284,55.6984 C332.7154,55.7584 336.0184,55.8824 339.0274,55.8824 C340.3544,55.8824 340.5524,55.2844 340.5524,54.9264 C340.5524,54.5204 340.2564,54.1114 339.5954,54.1114 C338.9894,54.1114 337.4624,53.9754 336.4504,53.8314 C334.6794,53.5954 334.2404,52.4464 334.0154,50.2634 C333.6624,47.3024 333.6624,41.5524 333.6624,34.8944 L333.6624,5.2444 C335.0274,5.2744 336.3924,5.2904 337.7574,5.3064 C339.2434,5.3244 340.7294,5.3414 342.2164,5.3774 C349.2844,5.5244 350.4074,7.2584 350.5734,8.8954 C350.5734,9.0584 350.5934,9.2004 350.6134,9.3424 C350.6284,9.4484 350.6454,9.5554 350.6454,9.7044 C350.6954,10.4034 350.7574,11.2724 351.6004,11.2724 C351.8084,11.2724 352.4864,11.1784 352.4864,9.9614 C352.4864,9.6684 352.5164,8.7934 352.5544,7.7034 C352.6154,5.9214 352.6994,3.4814 352.6994,2.1474 C352.6994,1.7144 352.6994,0.9074 351.9564,0.9074" id="Fill-43"></path>
            <path d="M421.5385,20.4508 C421.5385,15.0878 421.5385,7.7418 421.6095,5.3198 C421.6095,4.6498 421.7725,4.4578 422.2465,4.2468 C422.7095,4.0158 425.1825,3.7908 426.6905,3.7908 C435.9585,3.7908 443.4085,5.1348 449.6385,11.6968 C452.1455,14.3258 456.3505,20.1138 456.3505,29.3308 C456.3505,36.1578 454.1655,42.7128 450.7815,46.0328 C446.6555,50.1588 440.5935,52.5248 434.1495,52.5248 C425.9465,52.5248 423.2285,51.0718 422.3875,49.8438 C421.8585,49.1148 421.7245,45.7598 421.6795,44.6528 C421.6115,43.3478 421.5385,36.8498 421.5385,29.2588 L421.5385,20.4508 Z M456.5205,8.8158 C449.5065,1.5658 439.5415,0.5878 430.7185,0.5878 C430.1605,0.5878 429.6215,0.5918 429.1055,0.5938 L427.7565,0.5988 C424.8055,0.5988 421.7165,0.7018 419.8705,0.7638 C419.0345,0.7908 418.4285,0.8118 418.1665,0.8118 C418.0795,0.8118 417.7395,0.7988 417.2285,0.7788 C415.7085,0.7198 412.5455,0.5988 410.1405,0.5988 C409.7235,0.5988 408.6165,0.5988 408.6165,1.5558 C408.6165,1.7468 408.7005,2.3698 409.7845,2.3698 C410.4035,2.3698 411.5865,2.4418 412.1195,2.5748 C414.1435,3.0038 414.5115,3.8308 414.6545,6.2678 C414.7945,8.5288 414.7945,10.5218 414.7945,21.5878 L414.7945,34.0898 C414.7945,40.7478 414.7945,46.4978 414.4445,49.4508 C414.1405,51.6538 413.7855,52.8118 412.6845,53.0318 C412.0445,53.1738 411.4675,53.2428 410.7795,53.3058 C409.7605,53.3058 409.6805,53.9298 409.6805,54.1218 C409.6805,55.0778 410.7885,55.0778 411.2065,55.0778 C411.7055,55.0778 412.3285,55.0468 412.9965,55.0138 C413.7725,54.9748 414.5735,54.9358 415.3445,54.9348 C416.7195,54.8698 417.8525,54.8648 418.1665,54.8648 C418.3305,54.8648 419.0505,54.9198 420.0485,54.9968 C421.0885,55.0768 422.4735,55.1828 424.0355,55.2898 C428.1025,55.5728 431.4345,55.7168 433.9365,55.7168 C443.0205,55.7168 450.5605,52.8508 455.7415,47.4268 C460.6845,42.2198 463.5195,34.8208 463.5195,27.1278 C463.5195,18.0078 459.7145,12.1358 456.5205,8.8158 L456.5205,8.8158 Z" id="Fill-44"></path>
            <polygon id="Fill-45" points="37.2289 29.9932 25.2149 23.1582 13.3049 29.9932"></polygon>
            <path d="M41.189,45.5165 C40.328,45.5165 40.165,46.3165 40.047,46.8995 C39.384,50.0795 38.507,51.2375 36.296,51.8545 C34.227,52.4025 31.695,52.4785 29.266,52.4785 C28.803,52.4785 28.374,52.4745 27.965,52.4675 L27.965,52.4705 L20.677,52.4295 C18.847,52.3515 17.65,52.1755 16.811,51.8665 C15.199,51.2905 14.628,50.1135 14.46,47.0225 C14.403,45.9595 14.428,41.3715 14.447,38.0225 C14.454,36.7065 14.46,35.5715 14.46,34.8945 L14.46,28.8275 L14.46,28.6435 L14.46,24.8795 L14.46,24.5145 L14.46,5.2725 C14.46,5.0965 14.483,5.0085 14.496,4.9715 L19.412,4.9715 L23.425,4.9715 C26.477,5.0015 31.052,5.0665 32.005,5.1625 C35.507,5.4355 37.067,6.0965 37.581,7.5415 C37.821,8.0905 37.965,8.9155 37.965,9.7485 C37.965,10.8895 38.663,11.0595 39.08,11.0595 C39.681,11.0595 40.075,10.5065 40.192,9.4945 C40.307,8.2165 40.381,7.1765 40.444,6.3035 L40.524,5.2295 C40.625,4.0135 40.857,3.2235 41.01,2.6995 C41.113,2.3495 41.187,2.0965 41.187,1.8635 C41.187,0.9365 40.639,0.8355 40.403,0.8355 C40.049,0.8355 39.828,0.9315 39.291,1.1615 C39.144,1.2245 38.45,1.4375 35.667,1.5475 C34.564,1.5875 28.419,1.6045 23.425,1.6125 L23.425,1.6145 L20.232,1.6145 L20.23,1.6155 L15.423,1.6155 L15.423,1.6145 C12.875,1.6175 10.927,1.6175 10.708,1.6175 C5.69,1.4045 3.574,1.4045 1.706,1.4045 C1.24,1.4045 0,1.4045 0,2.3605 C0,2.9905 0.812,3.0955 1.419,3.1725 C1.672,3.1985 1.964,3.2145 2.262,3.2315 C2.789,3.2615 3.334,3.2915 3.682,3.3795 C5.907,3.8015 6.596,4.6295 6.757,7.0725 C6.914,9.3335 6.914,11.3275 6.914,22.3925 L6.914,34.8945 C6.914,41.2395 6.834,44.8775 6.756,47.5995 C6.596,52.9715 5.516,53.6355 4.209,53.9135 C3.836,54.0095 3.493,54.0345 3.019,54.0695 C2.849,54.0815 2.663,54.0955 2.429,54.1165 C1.406,54.2695 1.192,54.6415 1.192,54.9265 C1.192,55.8825 2.43,55.8835 2.881,55.8825 C4.067,55.9245 5.203,55.8495 6.296,55.7785 C7.152,55.7225 7.962,55.6695 8.78,55.6695 C10.905,55.6695 13.298,55.7365 15.614,55.8015 C16.67,55.8315 17.711,55.8605 18.705,55.8825 C19.409,55.8985 20.092,55.9185 20.792,55.9395 L27.965,55.9745 C30.055,56.0355 32.515,56.0955 36.34,56.0955 C39.466,56.0955 40.409,56.0955 41.055,53.9505 C41.446,52.4835 42.1,47.6225 42.1,46.9705 C42.1,46.4625 42.1,45.5165 41.189,45.5165" id="Fill-46"></path>
        </g>
    </g>
</svg>